<svg id="Layer_2" data-name="Layer 2" xmlns="http://www.w3.org/2000/svg" viewBox="0 0 79.06 35.95">
  <defs>
    <style>
      .cls-1 {
        fill: #2ea76d;
      }

      .cls-1, .cls-2 {
        stroke-width: 0px;
      }

      .cls-2 {
        fill: #fff;
      }
    </style>
  </defs>
  <g id="Layer_1-2" data-name="Layer 1">
    <rect class="cls-1" width="79.06" height="35.95" rx="5.19" ry="5.19"/>
    <g>
      <path class="cls-2" d="m12.54,6.94h-1.04c-1.33,0-1.97.4-1.97,1.18v19.5c0,.77.65,1.18,1.97,1.18h1.04c1.29,0,1.97-.4,1.97-1.18V8.12c0-.77-.68-1.18-1.97-1.18Z"/>
      <path class="cls-2" d="m30.95,26.44c0-2.32,1.47-4.3,3.52-4.97.25-1.07.36-2.28.36-3.57,0-7.1-3.48-10.96-9.76-10.96h-6.71c-.93,0-1.36.44-1.36,1.4v19.02c0,.96.43,1.4,1.36,1.4h6.71c2.4,0,4.38-.55,5.92-1.66-.04-.18-.04-.44-.04-.66Zm-5.89-2.02h-3.09v-13.1h3.09c3.88,0,4.67,3.57,4.67,6.55s-.79,6.55-4.67,6.55Z"/>
      <path class="cls-2" d="m36.05,28.83c1.29,0,2.33-1.07,2.33-2.39s-1.04-2.39-2.33-2.39-2.33,1.07-2.33,2.39,1.04,2.39,2.33,2.39Z"/>
      <path class="cls-2" d="m69.13,23.05c-.07-.04-.14-.04-.22-.04-.32,0-.54.11-.72.44-.11.18-.22.37-.32.59-.43.74-.86,1.51-1.51,2.06-.86.74-2.12,1.1-3.19.88-.65-.11-1.08-.59-1.36-.96-.5-.7-.72-1.62-.68-2.69,1.58-.15,6.32-.85,6.71-4.53.07-.7-.11-1.36-.57-1.88-.57-.66-1.47-.99-2.55-.99-3.16,0-6.28,3.38-6.67,7.25-.11,1.07.04,2.02.39,2.91-.29.26-.54.44-.79.55-.25.15-.5.15-.65.07-.22-.11-.29-.33-.32-.55-.11-.7.04-1.51.22-2.35.11-.48.25-.99.36-1.47.39-1.4.79-2.83.65-4.3-.11-1.32-1.04-2.17-2.4-2.17-1.9,0-3.16,1.4-3.95,2.58,0-.88-.22-1.55-.61-1.95-.39-.4-.93-.63-1.69-.63-1.87,0-3.09,1.32-3.91,2.5,0-.11.04-.22.04-.33.04-.52.07-1.21-.32-1.66-.22-.26-.57-.4-1.04-.4-.39,0-.5,0-.93.07,0,0-.43.07-.57.22-.29.26-.18.63-.14.85v.07c.04.18.04.44.04.7-.07,1.4-.32,2.8-.54,4.01-.14.63-.29,1.29-.43,1.95-.32,1.43-.65,2.91-.83,4.38-.04.15.04.29.11.4.11.11.25.18.39.18h.11c1.04,0,2.05-.04,2.26-.63.25-.66.39-1.47.54-2.17l.07-.33c.29-1.62.57-2.8,1.11-4.3.29-.77.79-1.47,1.18-1.99.5-.63,1.04-1.25,1.61-1.25.25,0,.39.07.54.22.57.81-.14,3.38-.47,4.45-.07.22-.11.44-.14.59l-.22.85c-.32,1.25-.65,2.5-.79,3.83,0,.15-.04.26-.04.4v.18l.14.11c.25.22,2.15-.07,2.15-.07.68-.26.86-.92.9-1.14.14-.59.25-1.14.36-1.73v-.04c.22-1.07.43-2.17.75-3.2.61-2.06,1.47-3.46,2.48-4.19.43-.29.9-.33,1.08-.07.36.44.14,1.66.04,2.17-.14.7-.29,1.43-.47,2.13v.04c-.11.44-.22.88-.32,1.36-.29,1.4-.54,3.13.22,4.12.39.51,1,.77,1.79.77.86,0,1.65-.29,2.51-.92.25-.18.47-.37.75-.63.97,1.14,2.08,1.62,3.66,1.62,3.59,0,5.28-2.46,6.24-4.3.11-.22.25-.52.32-.74.11-.4-.04-.77-.36-.92Zm-4.41-4.64v.44c-.04.29-.07.59-.18.85-.5,1.69-1.97,2.02-3.19,2.06.18-.74.43-1.47.72-2.1.61-1.29,1.36-2.06,2.01-2.06.07,0,.11,0,.18.04.04,0,.04.04.07.04h.07s.04.04.07.07l.04.04.04.04s.04.04.04.07l.04.04s.04.04.04.07c0,0,0,.04.04.07,0,.04.04.07.04.15v.04s.04.11.04.18l-.04-.04Z"/>
    </g>
  </g>
</svg>